<svg width="468" height="449" viewBox="0 0 468 449" fill="none" xmlns="http://www.w3.org/2000/svg">
<ellipse cx="234" cy="224.5" rx="234" ry="224.5" fill="#242933"/>
<path d="M428 321.5H40L235.5 48L428 321.5Z" fill="url(#paint0_linear)" stroke="#D8DEE9" stroke-width="4"/>
<path d="M41.9509 322.262L39.7377 317.836L210.892 187.994L339.258 317.836L337.045 322.262L210.155 193.896L41.9509 322.262Z" fill="url(#paint1_linear)"/>
<path d="M426.311 322.262L233.762 143.73L123.84 207.175L122.364 202.749L234.5 137.828L235.238 138.566L428.525 317.836L426.311 322.262Z" fill="url(#paint2_linear)"/>
<path d="M235.975 140.042L232.287 141.517L261.796 245.538L264.747 243.325L235.975 140.042Z" fill="url(#paint3_linear)"/>
<defs>
<linearGradient id="paint0_linear" x1="234" y1="48" x2="234" y2="321.5" gradientUnits="userSpaceOnUse">
<stop stop-color="#88C0D0"/>
</linearGradient>
<linearGradient id="paint1_linear" x1="233.836" y1="-61.8768" x2="235.312" y2="320.713" gradientUnits="userSpaceOnUse">
<stop stop-color="#D8DEE9"/>
</linearGradient>
<linearGradient id="paint2_linear" x1="233.836" y1="-61.8768" x2="235.312" y2="320.713" gradientUnits="userSpaceOnUse">
<stop stop-color="#D8DEE9"/>
</linearGradient>
<linearGradient id="paint3_linear" x1="233.836" y1="-61.8768" x2="235.312" y2="320.713" gradientUnits="userSpaceOnUse">
<stop stop-color="#D8DEE9"/>
</linearGradient>
</defs>
</svg>
